<svg width="107" height="50" viewBox="0 0 107 50" fill="none" xmlns="http://www.w3.org/2000/svg">
<path d="M79.6213 0H84.979V6.59051H91.1621V11.7531H84.979V25.3185C84.979 27.5209 85.881 28.3392 88.3138 28.3392H91.1621V33.5018H87.6578C82.6992 33.5018 79.6213 30.1351 79.6213 24.7144V0Z" fill="currentColor"/>
<path d="M45.0043 33.5073V17.8548C45.0043 10.0176 41.2485 6.0468 33.8516 6.0468C31.4133 6.0468 29.0516 6.95849 27.4006 8.50726V0.00549745H22.0429V33.5073H27.4006V17.8548C27.4006 14.0653 30.0302 11.2094 33.5236 11.2094C37.5856 11.2094 39.6466 13.4446 39.6466 17.8548V33.5073H45.0043Z" fill="currentColor"/>
<path d="M14.3235 28.3447H18.3144V33.5073H13.4488C10.1905 33.5073 6.8884 32.2386 4.38452 30.0198C2.3836 28.2513 0 25.0824 0 20.0516C0 15.0209 2.3836 11.8574 4.38452 10.0835C6.8884 7.87018 10.1905 6.59601 13.4488 6.59601H18.3144V11.7586H14.3235C9.97725 11.7586 5.57632 14.609 5.57632 20.0516C5.57632 25.4943 9.97725 28.3447 14.3235 28.3447Z" fill="currentColor"/>
<path fill-rule="evenodd" clip-rule="evenodd" d="M17.9536 38.6588H17.478C16.1003 38.6588 15.4169 39.3453 15.4169 40.7293V47.9295C15.4169 49.3135 16.1003 50 17.478 50H17.9536C19.3313 50 20.0147 49.3135 20.0147 47.9295V40.7293C20.0147 39.3453 19.3313 38.6588 17.9536 38.6588ZM18.7463 47.9954C18.7463 48.5666 18.4784 48.8412 17.9044 48.8412H17.5217C16.9531 48.8412 16.6798 48.5721 16.6798 47.9954V40.6689C16.6798 40.0978 16.9477 39.8232 17.5217 39.8232H17.9044C18.473 39.8232 18.7463 40.0923 18.7463 40.6689V47.9954Z" fill="#FFAF14"/>
<path d="M8.88386 47.534L7.46792 38.7577H5.47245V49.9066H6.67519V40.6854L8.20049 49.9066H9.50164L11.0215 40.6854V49.9066H12.2625V38.7577H10.2943L8.88386 47.534Z" fill="#FFAF14"/>
<path fill-rule="evenodd" clip-rule="evenodd" d="M27.5427 42.4703C27.5427 43.4589 27.2092 43.9697 26.575 44.2058C27.2256 44.4584 27.5755 44.9692 27.5755 45.9578V47.8361C27.5755 49.2201 26.8921 49.9066 25.5144 49.9066H23.1691V38.7577H25.4816C26.8593 38.7577 27.5427 39.4442 27.5427 40.8282V42.4703ZM25.4488 39.9H24.4211V43.6456H25.3559C25.9901 43.6456 26.2908 43.3436 26.2908 42.7065V40.7458C26.2908 40.1691 26.0174 39.9 25.4488 39.9ZM25.4762 48.7587C26.0502 48.7587 26.3181 48.4842 26.3181 47.913V45.7161C26.3181 45.0791 26.0174 44.777 25.3832 44.777H24.4156V48.7587H25.4762Z" fill="#FFAF14"/>
<path d="M31.9764 38.7577H30.7081V49.9066H31.9764V38.7577Z" fill="#FFAF14"/>
<path d="M35.1364 38.7577H36.4047V48.7258H38.4986V49.9066H35.1364V38.7577Z" fill="#FFAF14"/>
<path d="M42.7792 44.7935H44.9223V43.6291H42.7792V39.933H44.9988V38.7577H41.5109V49.9066H45.0316V48.7258H42.7792V44.7935Z" fill="#FFAF14"/>
<path fill-rule="evenodd" clip-rule="evenodd" d="M62.1105 6.0413C54.4075 6.0413 48.1697 12.3133 48.1697 20.0461C48.1697 27.779 54.413 34.051 62.1105 34.051C65.9593 34.051 69.4472 32.4857 71.9675 29.9484L76.0513 34.0455V20.0461C76.0513 12.3133 69.808 6.0413 62.1105 6.0413ZM70.9014 20.0516V28.8829L68.3265 26.3016C66.7356 27.8998 64.5378 28.8884 62.105 28.8884C57.2449 28.8884 53.3086 24.9341 53.3086 20.0516C53.3086 15.1692 57.2503 11.2149 62.105 11.2149C66.9597 11.2149 70.9014 15.1692 70.9014 20.0516Z" fill="currentColor"/>
<path d="M94.497 18.4864C94.497 10.9293 99.1713 6.0413 106.404 6.0413H107V11.2039C102.441 11.2039 99.8546 13.7852 99.8546 18.3765V33.5018H94.497V18.4864Z" fill="currentColor"/>
<path d="M105.251 30.6843L104.786 29.3717H104.261V31.206H104.595V29.7232L105.108 31.206H105.398L105.901 29.7232V31.206H106.24V29.3717H105.721L105.251 30.6843Z" fill="currentColor"/>
<path d="M102.993 29.6737H102.397V29.3717H103.949V29.6737H103.354V31.206H102.993V29.6737Z" fill="currentColor"/>
<path d="M103.015 31.6344L103.479 32.947L103.949 31.6344H104.469V33.4688H104.13V31.9859L103.627 33.4688H103.337L102.823 31.9859V33.4688H102.49V31.6344H103.015Z" fill="currentColor"/>
<path d="M105.989 32.7548V32.6944L106 32.6889H106.349V32.7658C106.3 33.2326 106.005 33.5072 105.551 33.5072C105.026 33.5072 104.704 33.1338 104.704 32.5571C104.704 31.9804 105.048 31.596 105.568 31.596C105.978 31.596 106.273 31.8376 106.328 32.2056L106.338 32.2825H105.983L105.972 32.2276C105.934 32.0354 105.781 31.92 105.562 31.92C105.185 31.92 105.054 32.2386 105.054 32.5406C105.054 32.7328 105.103 33.1832 105.562 33.1832C105.803 33.1832 105.961 33.0184 105.989 32.7548Z" fill="currentColor"/>
</svg>
